<svg id="visual" viewBox="0 0 960 320" width="960" height="320" xmlns="http://www.w3.org/2000/svg" xmlns:xlink="http://www.w3.org/1999/xlink" version="1.1"><path d="M0 110L51 113L101 52L152 132L202 94L253 65L303 71L354 55L404 148L455 81L505 100L556 119L606 110L657 100L707 97L758 97L808 113L859 110L909 84L960 59L960 0L909 0L859 0L808 0L758 0L707 0L657 0L606 0L556 0L505 0L455 0L404 0L354 0L303 0L253 0L202 0L152 0L101 0L51 0L0 0Z" fill="#45556b"></path><path d="M0 126L51 132L101 75L152 161L202 135L253 113L303 113L354 103L404 174L455 123L505 148L556 148L606 132L657 135L707 119L758 113L808 139L859 148L909 135L960 87L960 57L909 82L859 108L808 111L758 95L707 95L657 98L606 108L556 117L505 98L455 79L404 146L354 53L303 69L253 63L202 92L152 130L101 50L51 111L0 108Z" fill="#434962"></path><path d="M0 171L51 171L101 148L152 219L202 161L253 158L303 174L354 164L404 199L455 158L505 212L556 199L606 174L657 177L707 193L758 190L808 199L859 203L909 171L960 129L960 85L909 133L859 146L808 137L758 111L707 117L657 133L606 130L556 146L505 146L455 121L404 172L354 101L303 111L253 111L202 133L152 159L101 73L51 130L0 124Z" fill="#433d57"></path><path d="M0 212L51 215L101 187L152 251L202 193L253 196L303 212L354 190L404 238L455 196L505 241L556 244L606 190L657 206L707 228L758 219L808 222L859 228L909 190L960 145L960 127L909 169L859 201L808 197L758 188L707 191L657 175L606 172L556 197L505 210L455 156L404 197L354 162L303 172L253 156L202 159L152 217L101 146L51 169L0 169Z" fill="#43314a"></path><path d="M0 270L51 244L101 228L152 279L202 235L253 215L303 244L354 235L404 273L455 244L505 279L556 276L606 219L657 267L707 251L758 260L808 286L859 263L909 231L960 171L960 143L909 188L859 226L808 220L758 217L707 226L657 204L606 188L556 242L505 239L455 194L404 236L354 188L303 210L253 194L202 191L152 249L101 185L51 213L0 210Z" fill="#41253c"></path><path d="M0 321L51 321L101 321L152 321L202 321L253 321L303 321L354 321L404 321L455 321L505 321L556 321L606 321L657 321L707 321L758 321L808 321L859 321L909 321L960 321L960 169L909 229L859 261L808 284L758 258L707 249L657 265L606 217L556 274L505 277L455 242L404 271L354 233L303 242L253 213L202 233L152 277L101 226L51 242L0 268Z" fill="#3d1a2c"></path></svg>