<svg id="visual" viewBox="0 0 960 320" width="960" height="320" xmlns="http://www.w3.org/2000/svg" xmlns:xlink="http://www.w3.org/1999/xlink" version="1.1"><path d="M0 33L46 65L91 52L137 43L183 27L229 20L274 65L320 49L366 49L411 17L457 71L503 39L549 49L594 71L640 65L686 52L731 62L777 65L823 84L869 71L914 36L960 59L960 0L914 0L869 0L823 0L777 0L731 0L686 0L640 0L594 0L549 0L503 0L457 0L411 0L366 0L320 0L274 0L229 0L183 0L137 0L91 0L46 0L0 0Z" fill="#45556b"></path><path d="M0 123L46 187L91 126L137 87L183 145L229 161L274 187L320 139L366 91L411 119L457 110L503 183L549 129L594 135L640 123L686 119L731 119L777 180L823 119L869 158L914 113L960 110L960 57L914 34L869 69L823 82L777 63L731 60L686 50L640 63L594 69L549 47L503 37L457 69L411 15L366 47L320 47L274 63L229 18L183 25L137 41L91 50L46 63L0 31Z" fill="#434962"></path><path d="M0 183L46 228L91 225L137 212L183 215L229 215L274 238L320 219L366 209L411 190L457 187L503 231L549 212L594 244L640 222L686 219L731 193L777 222L823 219L869 206L914 215L960 209L960 108L914 111L869 156L823 117L777 178L731 117L686 117L640 121L594 133L549 127L503 181L457 108L411 117L366 89L320 137L274 185L229 159L183 143L137 85L91 124L46 185L0 121Z" fill="#433d57"></path><path d="M0 228L46 270L91 267L137 235L183 251L229 257L274 260L320 247L366 244L411 222L457 228L503 267L549 225L594 270L640 241L686 247L731 225L777 241L823 241L869 254L914 241L960 238L960 207L914 213L869 204L823 217L777 220L731 191L686 217L640 220L594 242L549 210L503 229L457 185L411 188L366 207L320 217L274 236L229 213L183 213L137 210L91 223L46 226L0 181Z" fill="#43314a"></path><path d="M0 270L46 289L91 308L137 263L183 267L229 273L274 276L320 295L366 263L411 260L457 267L503 286L549 273L594 292L640 286L686 295L731 267L777 286L823 273L869 295L914 279L960 267L960 236L914 239L869 252L823 239L777 239L731 223L686 245L640 239L594 268L549 223L503 265L457 226L411 220L366 242L320 245L274 258L229 255L183 249L137 233L91 265L46 268L0 226Z" fill="#41253c"></path><path d="M0 321L46 321L91 321L137 321L183 321L229 321L274 321L320 321L366 321L411 321L457 321L503 321L549 321L594 321L640 321L686 321L731 321L777 321L823 321L869 321L914 321L960 321L960 265L914 277L869 293L823 271L777 284L731 265L686 293L640 284L594 290L549 271L503 284L457 265L411 258L366 261L320 293L274 274L229 271L183 265L137 261L91 306L46 287L0 268Z" fill="#3d1a2c"></path></svg>